<svg xmlns="http://www.w3.org/2000/svg" width="760" height="520" viewBox="0 0 760 520" role="img" aria-labelledby="title desc">
  <title id="title">Technical interview track</title>
  <desc id="desc">Code window with logic blocks and terminal line.</desc>
  <defs>
    <linearGradient id="techbg" x1="0" y1="0" x2="1" y2="1">
      <stop offset="0" stop-color="#0f172a"/>
      <stop offset="1" stop-color="#1e3a8a"/>
    </linearGradient>
  </defs>
  <rect width="760" height="520" rx="24" fill="url(#techbg)"/>
  <rect x="70" y="70" width="620" height="380" rx="18" fill="#0b1220" stroke="#334155"/>
  <rect x="90" y="94" width="580" height="34" rx="8" fill="#1e293b"/>
  <circle cx="110" cy="111" r="7" fill="#ef4444"/>
  <circle cx="132" cy="111" r="7" fill="#f59e0b"/>
  <circle cx="154" cy="111" r="7" fill="#22c55e"/>
  <rect x="104" y="160" width="270" height="24" rx="8" fill="#1d4ed8"/>
  <rect x="104" y="198" width="336" height="24" rx="8" fill="#0ea5e9"/>
  <rect x="104" y="236" width="220" height="24" rx="8" fill="#38bdf8"/>
  <rect x="104" y="294" width="556" height="116" rx="12" fill="#020617" stroke="#1e293b"/>
  <rect x="126" y="316" width="300" height="16" rx="6" fill="#10b981"/>
  <rect x="126" y="346" width="214" height="16" rx="6" fill="#22d3ee"/>
  <rect x="126" y="376" width="360" height="16" rx="6" fill="#818cf8"/>
</svg>
