<svg xmlns="http://www.w3.org/2000/svg" width="760" height="520" viewBox="0 0 760 520" role="img" aria-labelledby="title desc">
  <title id="title">Aptitude interview track</title>
  <desc id="desc">Math board with charts and equation blocks.</desc>
  <defs>
    <linearGradient id="aptbg" x1="0" y1="0" x2="1" y2="1">
      <stop offset="0" stop-color="#ecfeff"/>
      <stop offset="1" stop-color="#dbeafe"/>
    </linearGradient>
  </defs>
  <rect width="760" height="520" rx="24" fill="url(#aptbg)"/>
  <rect x="86" y="74" width="588" height="372" rx="20" fill="#ffffff" stroke="#bfdbfe"/>
  <rect x="124" y="116" width="246" height="158" rx="14" fill="#eff6ff"/>
  <path d="M148 240l46-56 44 30 46-62 56 88" fill="none" stroke="#2563eb" stroke-width="10" stroke-linecap="round" stroke-linejoin="round"/>
  <rect x="398" y="116" width="238" height="42" rx="10" fill="#cffafe"/>
  <rect x="398" y="174" width="238" height="42" rx="10" fill="#cffafe"/>
  <rect x="398" y="232" width="172" height="42" rx="10" fill="#cffafe"/>
  <rect x="124" y="304" width="512" height="100" rx="14" fill="#f8fafc"/>
  <rect x="152" y="334" width="158" height="18" rx="6" fill="#0ea5e9"/>
  <rect x="328" y="334" width="118" height="18" rx="6" fill="#2563eb"/>
  <rect x="464" y="334" width="144" height="18" rx="6" fill="#0891b2"/>
</svg>
