<svg xmlns="http://www.w3.org/2000/svg" width="760" height="560" viewBox="0 0 760 560" role="img" aria-labelledby="title desc">
  <title id="title">Secure login illustration</title>
  <desc id="desc">Laptop and shield icon representing secure access to interview dashboard.</desc>
  <defs>
    <linearGradient id="g1" x1="0" y1="0" x2="1" y2="1">
      <stop offset="0" stop-color="#4338ca"/>
      <stop offset="1" stop-color="#0ea5e9"/>
    </linearGradient>
  </defs>
  <rect width="760" height="560" rx="24" fill="#f8fafc"/>
  <circle cx="620" cy="120" r="64" fill="#ccfbf1"/>
  <circle cx="150" cy="430" r="72" fill="#c7d2fe"/>
  <rect x="120" y="150" width="520" height="286" rx="22" fill="#ffffff" stroke="#cbd5e1"/>
  <rect x="162" y="188" width="436" height="184" rx="14" fill="#e2e8f0"/>
  <rect x="278" y="390" width="204" height="26" rx="10" fill="#94a3b8"/>
  <path d="M380 90c53 0 96 43 96 96 0 58-43 122-96 144-53-22-96-86-96-144 0-53 43-96 96-96z" fill="url(#g1)" opacity="0.95"/>
  <rect x="338" y="166" width="84" height="64" rx="10" fill="#ffffff"/>
  <circle cx="380" cy="196" r="12" fill="#4338ca"/>
</svg>
